<svg xmlns="http://www.w3.org/2000/svg" xmlns:xlink="http://www.w3.org/1999/xlink" width="200" zoomAndPan="magnify" viewBox="0 0 150 74.999997" height="100" preserveAspectRatio="xMidYMid meet" version="1.0"><defs><g/></defs><g fill="#000000" fill-opacity="1"><g transform="translate(1.069375, 33.749996)"><g><path d="M 0.578125 0 L 7.609375 -19.265625 L 10.390625 -19.265625 L 17.46875 0 L 14.90625 0 L 10.84375 -11.46875 C 10.582031 -12.195312 10.285156 -13.078125 9.953125 -14.109375 C 9.617188 -15.148438 9.210938 -16.488281 8.734375 -18.125 L 9.25 -18.125 C 8.769531 -16.476562 8.359375 -15.125 8.015625 -14.0625 C 7.679688 -13.007812 7.398438 -12.144531 7.171875 -11.46875 L 3.15625 0 Z M 4.140625 -5.375 L 4.140625 -7.515625 L 13.921875 -7.515625 L 13.921875 -5.375 Z M 4.140625 -5.375 "/></g></g></g><g fill="#000000" fill-opacity="1"><g transform="translate(19.114211, 33.749996)"><g><path d="M 2.234375 0 L 2.234375 -19.265625 L 8.953125 -19.265625 C 10.410156 -19.265625 11.625 -19.007812 12.59375 -18.5 C 13.570312 -18 14.300781 -17.300781 14.78125 -16.40625 C 15.269531 -15.519531 15.515625 -14.5 15.515625 -13.34375 C 15.515625 -12.175781 15.269531 -11.15625 14.78125 -10.28125 C 14.289062 -9.40625 13.554688 -8.722656 12.578125 -8.234375 C 11.609375 -7.742188 10.390625 -7.5 8.921875 -7.5 L 3.59375 -7.5 L 3.59375 -9.65625 L 8.859375 -9.65625 C 9.847656 -9.65625 10.648438 -9.800781 11.265625 -10.09375 C 11.890625 -10.394531 12.347656 -10.820312 12.640625 -11.375 C 12.941406 -11.925781 13.09375 -12.582031 13.09375 -13.34375 C 13.09375 -14.113281 12.941406 -14.78125 12.640625 -15.34375 C 12.347656 -15.90625 11.890625 -16.34375 11.265625 -16.65625 C 10.640625 -16.976562 9.828125 -17.140625 8.828125 -17.140625 L 4.671875 -17.140625 L 4.671875 0 Z M 13.328125 0 L 8.671875 -8.671875 L 11.421875 -8.671875 L 16.15625 0 Z M 13.328125 0 "/></g></g></g><g fill="#000000" fill-opacity="1"><g transform="translate(36.086187, 33.749996)"><g><path d="M 4.671875 -19.265625 L 4.671875 0 L 2.234375 0 L 2.234375 -19.265625 Z M 4.671875 -19.265625 "/></g></g></g><g fill="#000000" fill-opacity="1"><g transform="translate(1.069375, 59.249994)"><g><path d="M 2.234375 0 L 2.234375 -19.265625 L 14 -19.265625 L 14 -17.125 L 4.671875 -17.125 L 4.671875 -10.59375 L 13.140625 -10.59375 L 13.140625 -8.4375 L 4.671875 -8.4375 L 4.671875 0 Z M 2.234375 0 "/></g></g></g><g fill="#000000" fill-opacity="1"><g transform="translate(16.490219, 59.249994)"><g><path d="M 2.234375 0 L 2.234375 -19.265625 L 4.671875 -19.265625 L 4.671875 -2.140625 L 13.671875 -2.140625 L 13.671875 0 Z M 2.234375 0 "/></g></g></g><g fill="#000000" fill-opacity="1"><g transform="translate(30.527689, 59.249994)"><g><path d="M 10.09375 0.265625 C 8.4375 0.265625 6.957031 -0.132812 5.65625 -0.9375 C 4.363281 -1.75 3.34375 -2.894531 2.59375 -4.375 C 1.851562 -5.863281 1.484375 -7.613281 1.484375 -9.625 C 1.484375 -11.632812 1.851562 -13.378906 2.59375 -14.859375 C 3.34375 -16.347656 4.363281 -17.5 5.65625 -18.3125 C 6.957031 -19.132812 8.4375 -19.546875 10.09375 -19.546875 C 11.75 -19.546875 13.222656 -19.132812 14.515625 -18.3125 C 15.804688 -17.5 16.820312 -16.347656 17.5625 -14.859375 C 18.300781 -13.378906 18.671875 -11.632812 18.671875 -9.625 C 18.671875 -7.613281 18.300781 -5.863281 17.5625 -4.375 C 16.820312 -2.894531 15.804688 -1.75 14.515625 -0.9375 C 13.222656 -0.132812 11.75 0.265625 10.09375 0.265625 Z M 10.09375 -1.984375 C 11.238281 -1.984375 12.28125 -2.273438 13.21875 -2.859375 C 14.15625 -3.441406 14.898438 -4.300781 15.453125 -5.4375 C 16.015625 -6.582031 16.296875 -7.976562 16.296875 -9.625 C 16.296875 -11.28125 16.015625 -12.675781 15.453125 -13.8125 C 14.898438 -14.957031 14.15625 -15.820312 13.21875 -16.40625 C 12.28125 -17 11.238281 -17.296875 10.09375 -17.296875 C 8.9375 -17.296875 7.882812 -17 6.9375 -16.40625 C 6 -15.8125 5.25 -14.945312 4.6875 -13.8125 C 4.132812 -12.675781 3.859375 -11.28125 3.859375 -9.625 C 3.859375 -7.976562 4.132812 -6.585938 4.6875 -5.453125 C 5.25 -4.316406 6 -3.453125 6.9375 -2.859375 C 7.882812 -2.273438 8.9375 -1.984375 10.09375 -1.984375 Z M 10.09375 -1.984375 "/></g></g></g><g fill="#000000" fill-opacity="1"><g transform="translate(50.679486, 59.249994)"><g><path d="M 2.234375 0 L 2.234375 -19.265625 L 8.953125 -19.265625 C 10.410156 -19.265625 11.625 -19.007812 12.59375 -18.5 C 13.570312 -18 14.300781 -17.300781 14.78125 -16.40625 C 15.269531 -15.519531 15.515625 -14.5 15.515625 -13.34375 C 15.515625 -12.175781 15.269531 -11.15625 14.78125 -10.28125 C 14.289062 -9.40625 13.554688 -8.722656 12.578125 -8.234375 C 11.609375 -7.742188 10.390625 -7.5 8.921875 -7.5 L 3.59375 -7.5 L 3.59375 -9.65625 L 8.859375 -9.65625 C 9.847656 -9.65625 10.648438 -9.800781 11.265625 -10.09375 C 11.890625 -10.394531 12.347656 -10.820312 12.640625 -11.375 C 12.941406 -11.925781 13.09375 -12.582031 13.09375 -13.34375 C 13.09375 -14.113281 12.941406 -14.78125 12.640625 -15.34375 C 12.347656 -15.90625 11.890625 -16.34375 11.265625 -16.65625 C 10.640625 -16.976562 9.828125 -17.140625 8.828125 -17.140625 L 4.671875 -17.140625 L 4.671875 0 Z M 13.328125 0 L 8.671875 -8.671875 L 11.421875 -8.671875 L 16.15625 0 Z M 13.328125 0 "/></g></g></g><g fill="#000000" fill-opacity="1"><g transform="translate(67.651461, 59.249994)"><g><path d="M 2.234375 0 L 2.234375 -19.265625 L 14.140625 -19.265625 L 14.140625 -17.125 L 4.671875 -17.125 L 4.671875 -10.84375 L 13.484375 -10.84375 L 13.484375 -8.671875 L 4.671875 -8.671875 L 4.671875 -2.140625 L 14.234375 -2.140625 L 14.234375 0 Z M 2.234375 0 "/></g></g></g><g fill="#000000" fill-opacity="1"><g transform="translate(83.434236, 59.249994)"><g><path d="M 8.4375 0.34375 C 7.039062 0.34375 5.820312 0.109375 4.78125 -0.359375 C 3.738281 -0.835938 2.925781 -1.492188 2.34375 -2.328125 C 1.769531 -3.171875 1.453125 -4.160156 1.390625 -5.296875 L 3.875 -5.296875 C 3.925781 -4.535156 4.160156 -3.894531 4.578125 -3.375 C 4.992188 -2.863281 5.539062 -2.476562 6.21875 -2.21875 C 6.894531 -1.96875 7.632812 -1.84375 8.4375 -1.84375 C 9.332031 -1.84375 10.125 -1.984375 10.8125 -2.265625 C 11.507812 -2.554688 12.054688 -2.957031 12.453125 -3.46875 C 12.859375 -3.976562 13.0625 -4.578125 13.0625 -5.265625 C 13.0625 -5.867188 12.894531 -6.363281 12.5625 -6.75 C 12.238281 -7.144531 11.789062 -7.472656 11.21875 -7.734375 C 10.644531 -7.992188 9.988281 -8.222656 9.25 -8.421875 L 6.953125 -9.046875 C 5.304688 -9.492188 4.050781 -10.125 3.1875 -10.9375 C 2.332031 -11.757812 1.90625 -12.8125 1.90625 -14.09375 C 1.90625 -15.1875 2.191406 -16.140625 2.765625 -16.953125 C 3.347656 -17.773438 4.140625 -18.410156 5.140625 -18.859375 C 6.140625 -19.316406 7.265625 -19.546875 8.515625 -19.546875 C 9.804688 -19.546875 10.941406 -19.316406 11.921875 -18.859375 C 12.898438 -18.398438 13.664062 -17.769531 14.21875 -16.96875 C 14.78125 -16.164062 15.082031 -15.25 15.125 -14.21875 L 12.734375 -14.21875 C 12.628906 -15.21875 12.1875 -15.992188 11.40625 -16.546875 C 10.625 -17.097656 9.632812 -17.375 8.4375 -17.375 C 7.613281 -17.375 6.882812 -17.234375 6.25 -16.953125 C 5.625 -16.679688 5.132812 -16.304688 4.78125 -15.828125 C 4.4375 -15.359375 4.265625 -14.820312 4.265625 -14.21875 C 4.265625 -13.582031 4.457031 -13.0625 4.84375 -12.65625 C 5.226562 -12.257812 5.707031 -11.941406 6.28125 -11.703125 C 6.851562 -11.460938 7.421875 -11.265625 7.984375 -11.109375 L 9.96875 -10.578125 C 10.582031 -10.421875 11.207031 -10.210938 11.84375 -9.953125 C 12.476562 -9.691406 13.066406 -9.359375 13.609375 -8.953125 C 14.160156 -8.546875 14.601562 -8.039062 14.9375 -7.4375 C 15.269531 -6.832031 15.4375 -6.109375 15.4375 -5.265625 C 15.4375 -4.191406 15.15625 -3.234375 14.59375 -2.390625 C 14.039062 -1.546875 13.242188 -0.878906 12.203125 -0.390625 C 11.160156 0.0976562 9.90625 0.34375 8.4375 0.34375 Z M 8.4375 0.34375 "/></g></g></g></svg>